<svg width="180" height="42" viewBox="0 0 180 42" fill="none" xmlns="http://www.w3.org/2000/svg">
<g clip-path="url(#clip0_138_55)">
<path d="M176.96 10.1192C177.559 10.1171 178.146 10.2928 178.645 10.6241C179.144 10.9553 179.534 11.4271 179.765 11.9799C179.997 12.5328 180.059 13.1417 179.944 13.7298C179.829 14.3179 179.542 14.8586 179.12 15.2838C178.698 15.7089 178.159 15.9992 177.571 16.1181C176.984 16.237 176.375 16.1791 175.82 15.9516C175.266 15.7242 174.792 15.3375 174.457 14.8404C174.123 14.3433 173.943 13.7581 173.941 13.1589C173.938 12.3555 174.255 11.5839 174.821 11.0138C175.387 10.4438 176.157 10.122 176.96 10.1192V10.1192ZM176.96 15.5051C177.428 15.5172 177.889 15.3902 178.285 15.1403C178.681 14.8903 178.994 14.5285 179.184 14.1007C179.375 13.6729 179.434 13.1983 179.354 12.7369C179.275 12.2755 179.061 11.848 178.738 11.5084C178.416 11.1689 178 10.9326 177.543 10.8294C177.086 10.7262 176.609 10.7608 176.172 10.9287C175.735 11.0967 175.358 11.3904 175.088 11.7729C174.818 12.1553 174.667 12.6093 174.655 13.0773V13.1386C174.649 13.4414 174.703 13.7424 174.814 14.0243C174.925 14.3062 175.09 14.5635 175.3 14.7814C175.511 14.9993 175.762 15.1736 176.04 15.2943C176.318 15.415 176.617 15.4797 176.919 15.4847C176.919 15.5051 176.94 15.5051 176.96 15.5051H176.96ZM176.919 13.669H176.675V14.7706H175.818V11.5064H177.185C177.471 11.4975 177.749 11.6017 177.959 11.7964C178.169 11.9912 178.294 12.2608 178.307 12.5469V12.5673C178.307 12.7611 178.254 12.9514 178.153 13.117C178.053 13.2826 177.908 13.4171 177.735 13.5057L178.348 14.7502H177.409L176.919 13.669ZM177.022 12.9957C177.072 13.0013 177.124 12.9967 177.173 12.9822C177.222 12.9677 177.268 12.9437 177.308 12.9115C177.348 12.8792 177.381 12.8394 177.405 12.7944C177.43 12.7493 177.445 12.6999 177.45 12.6489V12.5877C177.457 12.4879 177.424 12.3894 177.359 12.3132C177.295 12.237 177.203 12.1891 177.103 12.1796H176.675V12.9753L177.022 12.9957Z" fill="white"/>
<path d="M104.862 12.3429C104.861 11.857 104.666 11.3916 104.322 11.0486C103.978 10.7056 103.512 10.513 103.026 10.513C102.54 10.513 102.074 10.7056 101.73 11.0486C101.386 11.3916 101.192 11.857 101.19 12.3429V13.2406C99.6192 10.9965 96.8651 10.0784 94.5189 10.0784C88.9289 10.0784 84.7059 14.7095 84.7059 20.8502C84.7059 27.3786 88.7453 31.9484 94.5189 31.9484C97.3546 31.9484 99.7212 30.7448 101.272 28.3782L101.251 29.6839C101.246 29.9258 101.289 30.1662 101.378 30.3913C101.466 30.6163 101.599 30.8213 101.768 30.9942C101.938 31.1672 102.14 31.3046 102.363 31.3984C102.586 31.4922 102.825 31.5405 103.067 31.5404H103.087C103.329 31.5414 103.568 31.4946 103.791 31.4027C104.014 31.3108 104.217 31.1756 104.388 31.0049C104.559 30.8342 104.694 30.6314 104.786 30.4082C104.878 30.1849 104.924 29.9457 104.923 29.7043V29.6227C104.883 28.9495 104.862 28.0722 104.862 27.6846V12.3429ZM94.9065 28.7251C91.0099 28.7251 88.5005 25.6445 88.5005 20.8707C88.5005 16.3621 91.0915 13.3223 94.9473 13.3223C98.7623 13.3223 101.231 16.2805 101.231 20.8707C101.21 25.5017 98.6195 28.7251 94.9065 28.7251ZM71.0371 10.058C65.5695 10.058 62.0605 13.261 62.0605 18.2184V29.7247C62.0597 29.969 62.1071 30.2111 62.2 30.437C62.293 30.663 62.4296 30.8684 62.6021 31.0415C62.7745 31.2145 62.9795 31.3518 63.2051 31.4455C63.4308 31.5392 63.6727 31.5874 63.917 31.5874C64.1614 31.5874 64.4033 31.5392 64.6289 31.4455C64.8546 31.3518 65.0595 31.2145 65.232 31.0415C65.4045 30.8684 65.5411 30.663 65.634 30.437C65.7269 30.2111 65.7744 29.969 65.7735 29.7247V18.9122C65.7735 15.5052 67.5689 13.3834 71.0167 13.3834C74.4645 13.3834 76.2598 15.5052 76.2598 18.9122V29.7043C76.2614 30.1956 76.4577 30.6662 76.8057 31.013C77.1537 31.3599 77.625 31.5546 78.1163 31.5546C78.6076 31.5546 79.0789 31.3599 79.4268 31.013C79.7748 30.6662 79.9711 30.1956 79.9728 29.7043V18.198C80.0136 13.2406 76.525 10.058 71.0371 10.058ZM127.365 10.4661C127.118 10.4654 126.874 10.5135 126.646 10.6076C126.418 10.7017 126.211 10.8399 126.036 11.0143C125.862 11.1887 125.724 11.3959 125.629 11.6239C125.535 11.8519 125.487 12.0963 125.488 12.3429V23.1351C125.488 26.5421 123.693 28.6639 120.245 28.6639C116.797 28.6639 115.002 26.5421 115.002 23.1351V12.3429C115 11.8516 114.804 11.381 114.456 11.0342C114.108 10.6874 113.636 10.4926 113.145 10.4926C112.654 10.4926 112.183 10.6874 111.835 11.0342C111.487 11.381 111.29 11.8516 111.289 12.3429V23.8288C111.289 28.7863 114.798 31.9892 120.265 31.9892C125.733 31.9892 129.242 28.7862 129.242 23.8288V12.3429C129.233 11.848 129.032 11.3758 128.682 11.0258C128.332 10.6757 127.86 10.4751 127.365 10.4661V10.4661ZM160.802 9.99682C154.662 9.99682 150.194 14.6279 150.194 21.0135C150.194 27.3991 154.662 32.071 160.802 32.071C166.943 32.071 171.411 27.4195 171.411 21.0135C171.411 14.6075 166.943 9.99682 160.802 9.99682V9.99682ZM165.556 26.7869C164.941 27.4132 164.209 27.9121 163.402 28.2552C162.594 28.5982 161.727 28.7787 160.85 28.7863C159.973 28.7939 159.102 28.6284 158.289 28.2993C157.476 27.9703 156.735 27.4841 156.11 26.8686L156.028 26.7869C154.702 25.3793 153.988 23.3799 153.988 21.0134C153.988 17.3004 156.11 13.2814 160.782 13.2814C165.454 13.2814 167.576 17.2801 167.576 21.0134C167.596 23.3799 166.882 25.3793 165.556 26.7869V26.7869ZM144.4 27.7458C143.788 27.8479 143.176 27.9906 142.564 28.1334L142.115 28.2355C142.074 28.2355 142.054 28.2559 142.013 28.2559H141.952L141.809 28.2763C141.312 28.3396 140.808 28.2316 140.381 27.9703C140.096 27.791 139.858 27.5462 139.687 27.2563C139.516 26.9704 139.411 26.6496 139.381 26.3178V13.9751H144.543C144.986 13.9778 145.413 13.8042 145.729 13.4924C146.044 13.1805 146.223 12.7561 146.226 12.3124C146.228 11.8687 146.055 11.4421 145.743 11.1265C145.431 10.8109 145.007 10.632 144.563 10.6293H139.381V5.81472H139.402C139.402 5.31963 139.205 4.84482 138.855 4.49475C138.505 4.14467 138.03 3.948 137.535 3.948C137.04 3.948 136.565 4.14467 136.215 4.49475C135.865 4.84482 135.668 5.31963 135.668 5.81472L135.648 13.3224V26.2567L135.668 26.6035C135.777 27.9907 136.374 29.2946 137.352 30.2841C138.33 31.2736 139.627 31.8849 141.013 32.0097C141.469 32.0471 141.928 32.0334 142.38 31.9689L142.727 31.9077L142.89 31.8669L143.013 31.8465L143.461 31.7444C144.074 31.5812 144.665 31.4384 145.277 31.2344C145.692 31.1044 146.045 30.8276 146.271 30.4557C146.496 30.0839 146.578 29.6426 146.501 29.2147C146.415 28.7426 146.146 28.3237 145.752 28.0487C145.359 27.7737 144.873 27.6649 144.4 27.7458V27.7458Z" fill="white"/>
<path d="M4.69229 41.5776C3.44787 41.5774 2.25447 41.083 1.37454 40.203C0.494599 39.3231 0.000176767 38.1297 0 36.8853L1.57083 34.8452L3.26413 36.8853C3.26273 37.0755 3.29998 37.264 3.37363 37.4393C3.44728 37.6147 3.55578 37.7732 3.69256 37.9054C3.82175 38.0447 3.98028 38.1536 4.15669 38.2241C4.33311 38.2947 4.52299 38.3252 4.71263 38.3134L19.9727 38.2522C20.1606 38.2533 20.3468 38.2172 20.5206 38.1458C20.6944 38.0745 20.8523 37.9693 20.9851 37.8365C21.118 37.7037 21.2231 37.5458 21.2945 37.372C21.3658 37.1982 21.402 37.012 21.4008 36.8241V4.75331C21.401 3.50888 21.8954 2.31547 22.7754 1.43554C23.6553 0.5556 24.8487 0.0611898 26.0932 0.0610352H41.3737C42.6181 0.0612064 43.8115 0.555624 44.6914 1.43556C45.5714 2.31549 46.0658 3.50889 46.066 4.75331L44.4135 6.79343L42.8018 4.75331C42.8029 4.56544 42.7668 4.37922 42.6954 4.20543C42.6241 4.03164 42.5189 3.87374 42.3861 3.7409C42.2533 3.60805 42.0954 3.50291 41.9216 3.43155C41.7478 3.3602 41.5616 3.32406 41.3737 3.32522H26.0932C25.9053 3.32406 25.7191 3.3602 25.5453 3.43155C25.3715 3.50291 25.2136 3.60805 25.0808 3.7409C24.9479 3.87374 24.8428 4.03164 24.7714 4.20543C24.7001 4.37922 24.6639 4.56544 24.6651 4.75331V36.8242C24.6661 38.0654 24.1748 39.2564 23.299 40.136C22.4233 41.0155 21.2344 41.512 19.9932 41.5164L4.69229 41.5776Z" fill="url(#paint0_linear_138_55)"/>
<path d="M37.1302 41.5573C36.2764 41.5583 35.4361 41.3438 34.6872 40.9337C33.9383 40.5236 33.305 39.9311 32.846 39.2112L10.4454 4.10065C10.2825 3.84271 10.0565 3.63055 9.78874 3.48419C9.52103 3.33784 9.22043 3.26212 8.91533 3.26419H4.69229C4.50442 3.26302 4.31819 3.29917 4.1444 3.37052C3.97061 3.44188 3.81271 3.54703 3.67987 3.67987C3.54702 3.81272 3.44187 3.97061 3.37052 4.14441C3.29916 4.3182 3.26302 4.50443 3.26419 4.6923V36.8854H0V4.6923C0.000176766 3.44788 0.494599 2.25448 1.37454 1.37454C2.25447 0.494602 3.44787 0.000180166 4.69229 3.4008e-06H8.91533C9.76917 -0.000985042 10.6095 0.21351 11.3584 0.623623C12.1072 1.03374 12.7405 1.6262 13.1996 2.34615L35.6001 37.4566C35.7623 37.7199 35.991 37.9359 36.2632 38.0827C36.5354 38.2296 36.8415 38.3021 37.1506 38.293L41.3941 38.2726C41.7714 38.268 42.132 38.1161 42.3988 37.8493C42.6657 37.5825 42.8176 37.2219 42.8222 36.8445V4.75348H46.0864V36.8446C46.0839 38.0848 45.5915 39.2738 44.7165 40.1526C43.8415 41.0315 42.6546 41.529 41.4145 41.5369L37.171 41.5573H37.1302Z" fill="url(#paint1_linear_138_55)"/>
</g>
<defs>
<linearGradient id="paint0_linear_138_55" x1="45.1842" y1="14.8464" x2="6.1506" y2="25.3204" gradientUnits="userSpaceOnUse">
<stop stop-color="#12B259"/>
<stop offset="0.5" stop-color="#089247"/>
<stop offset="1" stop-color="#12B259"/>
</linearGradient>
<linearGradient id="paint1_linear_138_55" x1="43.6239" y1="17.6168" x2="4.52302" y2="23.6026" gradientUnits="userSpaceOnUse">
<stop stop-color="#12B259"/>
<stop offset="0.5" stop-color="#4CBA72"/>
<stop offset="1" stop-color="#12B259"/>
</linearGradient>
<clipPath id="clip0_138_55">
<rect width="180" height="41.5777" fill="white"/>
</clipPath>
</defs>
</svg>
